<svg width="110" height="110" xmlns="http://www.w3.org/2000/svg">

 <g>
  <title>background</title>
  <rect fill="none" id="canvas_background" height="402" width="582" y="-1" x="-1"/>
 </g>
 <g>
  <title>Layer 1</title>
  <circle id="svg_1" fill="#25d131" r="55" cy="55" cx="55"/>
  <circle id="svg_3" fill="#FFFFFF" r="6" cy="29" cx="50"/>
  <path id="svg_4" fill="#3E3E3F" d="m29.434,54.346001l19.553999,-26.968c0.339001,-0.427999 0.967003,-0.502001 1.373001,-0.188l23.834,19.781l2.612999,-0.43l-25.194,-20.909c-1.292999,-1.006001 -3.174,-0.780001 -4.217999,0.538l-20.767,28.637999l2.805,-0.461998z"/>
  <rect id="svg_5" fill="#007f3f" y="40.366" x="42.904" width="24" transform="matrix(0.1626, 0.9867, -0.9867, 0.1626, 111.462, 1.4042)" height="52"/>
  <path id="svg_6" fill="#FFFFFF" d="m78.607002,50.299l3.901001,23.681004l-51.308002,8.452995l-3.901001,-23.681l51.308002,-8.452999m1.651001,-4.299c-0.256004,0 -55.330004,9.089001 -55.583004,9.130001c-1.09,0.178997 -1.827999,1.208 -1.647999,2.298l4.552,27.627998c0.160999,0.980003 1.008999,1.675003 1.970999,1.675003c0.257,0 55.328999,-9.088005 55.583004,-9.130005c1.089996,-0.18 1.827995,-1.209 1.647995,-2.298996l-4.552002,-27.627003c-0.161995,-0.98 -1.009995,-1.674999 -1.970993,-1.674999l0,0z"/>
  <circle id="svg_7" fill="#CFD3D4" r="2" cy="29" cx="50"/>
  <polygon id="svg_8" fill="#007f3f" points="31.2,82.433 31.303,82.416 60.425,53.294 27.299,58.752   "/>
  <path id="svg_9" fill="#F0F1F1" d="m32.136002,70.545998l-0.005001,-0.031998c-0.519001,-3.149002 1.541,-6.137001 4.958,-6.700001c3.417999,-0.563 6.290001,1.579998 6.808998,4.729l0.005001,0.031998c0.409,3.269005 -1.651001,6.258003 -4.958,6.700005c-3.432999,0.459 -6.290001,-1.580002 -6.808998,-4.729004zm9.225998,-1.519997l-0.005001,-0.031998c-0.312,-1.899002 -1.966,-3.251007 -3.927998,-2.928001c-1.962002,0.322998 -3.067001,2.098 -2.754002,3.997002l0.005001,0.030998c0.313,1.898994 1.966,3.251999 3.928001,2.929001c1.960999,-0.323006 3.066998,-2.098 2.753998,-3.997002z"/>
  <path id="svg_10" fill="#FFFFFF" d="m43.903,68.574997l-0.005001,-0.031998c-0.518997,-3.149002 -3.390999,-5.292 -6.808998,-4.729c-3.417,0.563 -5.477001,3.550999 -4.958,6.700001l0.005001,0.031998c0.489998,2.973 3.077,5.046005 6.240997,4.796005l5.602001,-5.602005c0.013,-0.382996 -0.011002,-0.772995 -0.076,-1.165001zm-5.297001,4.448006c-1.960999,0.322998 -3.614998,-1.028999 -3.927998,-2.929001l-0.005001,-0.030998c-0.313,-1.899002 0.792,-3.674004 2.753998,-3.997002c1.962002,-0.323006 3.616001,1.028999 3.928001,2.928001l0.005001,0.031998c0.314999,1.899002 -0.791,3.673996 -2.754002,3.997002z"/>
  <path id="svg_11" fill="#F0F1F1" d="m45.354,63.898998c-0.112,-0.681 0.337002,-1.307999 1.018002,-1.418999l3.306999,-0.544998c2.642998,-0.435001 4.499001,0.868 4.871998,3.131001l0.005001,0.031998c0.422001,2.563004 -1.353001,4.221001 -3.836998,4.629997l-1.852001,0.305l0.362,2.199005c0.112,0.681 -0.337002,1.306999 -1.018002,1.418999s-1.306999,-0.336998 -1.418999,-1.017998l-1.438,-8.734005zm5.085999,3.647999c1.219002,-0.200996 1.811001,-1.045998 1.655003,-1.994995l-0.005001,-0.032005c-0.18,-1.091995 -1.035999,-1.551998 -2.255001,-1.351997l-1.882999,0.309998l0.557999,3.387001l1.93,-0.318001z"/>
  <path id="svg_12" fill="#FFFFFF" d="m49.679001,61.935001l-3.306999,0.544998c-0.68,0.112 -1.130001,0.739002 -1.018002,1.418999l0.632,3.834003l2.148998,-2.149002l-0.181999,-1.106003l1.542,-0.253998l2.239002,-2.238998c-0.613003,-0.142002 -1.297001,-0.174999 -2.055,-0.049999z"/>
  <path id="svg_13" fill="#F0F1F1" d="m57.341999,70.797997l-1.423,-8.639996c-0.112,-0.681 0.337002,-1.306999 1.018002,-1.419003l6.139999,-1.010998c0.601002,-0.098999 1.172001,0.311001 1.271,0.911999c0.098999,0.602001 -0.312996,1.157001 -0.915001,1.256001l-4.937,0.813l0.370003,2.247002l4.224998,-0.695999c0.601002,-0.098999 1.172001,0.310997 1.271,0.911995s-0.312996,1.157005 -0.913998,1.256004l-4.225002,0.695999l0.382999,2.325996l5.016003,-0.826996c0.601997,-0.098999 1.172997,0.310997 1.271996,0.912003c0.098999,0.601997 -0.312996,1.156998 -0.915001,1.255997l-6.218998,1.024002c-0.678997,0.112999 -1.304996,-0.336006 -1.417999,-1.017006z"/>
  <path id="svg_14" fill="#F0F1F1" d="m66.505997,60.349998c-0.112,-0.681 0.337006,-1.306999 1.017006,-1.418999l0.252998,-0.042c0.585999,-0.097 0.981003,0.131001 1.384003,0.502998l5.715996,5.397003l-0.941002,-5.712002c-0.110001,-0.665001 0.340004,-1.292 1.005005,-1.401001c0.665001,-0.108997 1.291,0.34 1.401001,1.005001l1.451996,8.813004c0.112,0.681 -0.336998,1.306999 -1.017998,1.418999l-0.079002,0.013c-0.585999,0.097 -0.981003,-0.131004 -1.384003,-0.503006l-5.926994,-5.589996l0.977997,5.933998c0.110001,0.665001 -0.339996,1.291 -1.003998,1.400002c-0.664001,0.109001 -1.291,-0.338997 -1.400002,-1.003998l-1.453003,-8.813004z"/>
 </g>
</svg>